<?xml version="1.0" standalone="no"?>
<!DOCTYPE svg PUBLIC "-//W3C//DTD SVG 20010904//EN"
 "http://www.w3.org/TR/2001/REC-SVG-20010904/DTD/svg10.dtd">
<svg version="1.0" xmlns="http://www.w3.org/2000/svg"
 width="557.000000pt" height="90.000000pt" viewBox="0 0 557.000000 90.000000"
 preserveAspectRatio="xMidYMid meet">

<g transform="translate(0.000000,90.000000) scale(0.100000,-0.100000)"
fill="#000000" stroke="none">
<path d="M339 797 l-337 -91 20 -71 c47 -172 47 -171 86 -196 25 -16 41 -37
49 -62 11 -34 10 -44 -8 -86 l-20 -48 30 -113 c17 -62 33 -115 35 -118 3 -2
162 37 354 88 l350 93 -32 120 c-30 114 -34 122 -69 144 -20 12 -41 32 -47 42
-16 32 -12 96 9 122 18 22 18 25 -6 108 -13 47 -28 103 -34 124 -7 25 -15 37
-27 36 -9 -1 -168 -42 -353 -92z m154 -71 c9 -35 17 -71 17 -79 0 -9 -31 -22
-96 -40 -53 -14 -98 -28 -101 -30 -4 -4 26 -137 33 -146 2 -2 49 9 104 24 56
14 104 24 106 22 8 -7 45 -149 41 -154 -3 -2 -49 -16 -103 -30 -55 -15 -100
-27 -101 -28 -2 -1 7 -34 18 -74 11 -40 17 -77 12 -81 -4 -4 -52 -19 -106 -33
l-98 -26 -8 22 c-4 12 -16 55 -26 94 -18 69 -18 75 -2 108 21 43 22 85 3 129
-12 29 -52 70 -77 78 -10 3 -65 196 -58 201 9 7 385 106 404 106 17 1 24 -10
38 -63z"/>
<path d="M4567 720 c-83 -21 -152 -74 -190 -145 -17 -31 -22 -58 -22 -120 0
-70 4 -87 30 -134 17 -30 48 -67 69 -83 112 -81 293 -73 390 17 25 23 26 29
26 130 l0 105 -125 0 -125 0 0 -60 0 -60 60 0 c52 0 60 -2 60 -19 0 -13 -13
-24 -40 -35 -52 -21 -75 -20 -128 4 -34 15 -47 29 -64 66 -46 105 18 215 126
216 37 1 54 -5 85 -30 l39 -31 51 27 c28 15 51 32 51 37 0 18 -73 83 -112 99
-48 20 -133 28 -181 16z"/>
<path d="M5141 720 c-131 -27 -214 -132 -214 -271 0 -191 188 -315 382 -252
139 44 213 194 171 345 -35 125 -192 208 -339 178z m135 -129 c111 -51 114
-218 4 -273 -94 -48 -206 11 -226 118 -10 53 30 123 86 152 54 27 82 27 136 3z"/>
<path d="M5520 715 c-17 -20 -5 -45 20 -45 11 0 23 7 26 15 6 15 -11 45 -26
45 -4 0 -13 -7 -20 -15z m31 -15 c9 13 10 13 6 0 -2 -8 -10 -15 -17 -15 -7 0
-15 7 -17 15 -4 13 -3 13 6 0 10 -13 12 -13 22 0z"/>
<path d="M1110 455 l0 -265 75 0 75 0 0 95 0 95 78 0 c94 0 112 13 112 78 l0
42 -95 0 -95 0 0 50 0 50 130 0 130 0 0 60 0 60 -205 0 -205 0 0 -265z"/>
<path d="M1662 703 c-13 -23 -192 -497 -192 -506 0 -4 35 -7 78 -7 l79 0 12
40 12 40 104 0 c99 0 104 -1 111 -22 14 -48 33 -58 106 -58 62 0 69 2 64 18
-3 9 -48 127 -99 262 l-93 245 -86 3 c-75 2 -88 0 -96 -15z m127 -219 c17 -47
31 -87 31 -90 0 -2 -29 -4 -64 -4 l-65 0 31 90 c16 50 31 90 33 90 2 0 17 -38
34 -86z"/>
<path d="M2090 455 l0 -265 70 0 69 0 3 147 3 147 108 -147 108 -147 67 0 67
0 -3 265 -3 265 -42 0 c-23 0 -53 -7 -65 -16 -21 -14 -22 -22 -22 -140 0 -68
-3 -124 -7 -123 -5 0 -54 63 -110 140 l-103 139 -70 0 -70 0 0 -265z"/>
<path d="M2680 473 c0 -229 2 -251 18 -266 15 -14 41 -17 138 -17 144 0 203
15 262 66 66 56 87 104 87 199 0 120 -44 189 -150 237 -43 19 -71 23 -202 26
l-153 4 0 -249z m289 109 c54 -27 76 -65 75 -126 0 -96 -56 -146 -161 -146
l-63 0 0 145 0 145 58 0 c34 0 70 -7 91 -18z"/>
<path d="M3365 703 c-3 -10 -44 -117 -90 -238 -46 -121 -88 -232 -94 -247
l-11 -28 79 0 78 0 16 40 15 40 102 0 101 0 11 -30 c5 -17 18 -35 28 -40 21
-11 140 -14 140 -3 0 4 -44 123 -97 265 l-98 258 -86 0 c-74 0 -88 -3 -94 -17z
m125 -218 c13 -38 25 -76 28 -82 3 -10 -13 -13 -60 -13 l-64 0 30 90 c17 49
34 86 37 82 4 -4 17 -38 29 -77z"/>
<path d="M3800 455 l0 -265 65 0 64 0 3 151 3 151 110 -151 110 -150 68 -1 67
0 0 265 0 265 -48 0 c-81 0 -86 -9 -92 -155 l-5 -126 -105 140 -104 141 -68 0
-68 0 0 -265z"/>
</g>
</svg>
